HIERARCHY
ROOT Hips
{
	OFFSET 0.00000 0.00000 0.00000
	CHANNELS 6 Xposition Yposition Zposition Zrotation Yrotation Xrotation 
	JOINT LHipJoint
	{
		OFFSET 0 0 0
		CHANNELS 3 Zrotation Yrotation Xrotation
		JOINT LeftUpLeg
		{
			OFFSET 1.56741 -1.82513 0.67319
			CHANNELS 3 Zrotation Yrotation Xrotation
			JOINT LeftLeg
			{
				OFFSET 2.35708 -6.47604 0.00000
				CHANNELS 3 Zrotation Yrotation Xrotation
				JOINT LeftFoot
				{
					OFFSET 2.70636 -7.43567 0.00000
					CHANNELS 3 Zrotation Yrotation Xrotation
					JOINT LeftToeBase
					{
						OFFSET 0.20427 -0.56122 2.08535
						CHANNELS 3 Zrotation Yrotation Xrotation
						End Site
						{
							OFFSET 0.00000 -0.00000 1.08535
						}
					}
				}
			}
		}
	}
	JOINT RHipJoint
	{
		OFFSET 0 0 0
		CHANNELS 3 Zrotation Yrotation Xrotation
		JOINT RightUpLeg
		{
			OFFSET -1.51422 -1.82513 0.67319
			CHANNELS 3 Zrotation Yrotation Xrotation
			JOINT RightLeg
			{
				OFFSET -2.48824 -6.83638 0.00000
				CHANNELS 3 Zrotation Yrotation Xrotation
				JOINT RightFoot
				{
					OFFSET -2.70033 -7.41909 0.00000
					CHANNELS 3 Zrotation Yrotation Xrotation
					JOINT RightToeBase
					{
						OFFSET -0.19750 -0.54263 2.22151
						CHANNELS 3 Zrotation Yrotation Xrotation
						End Site
						{
							OFFSET -0.00000 -0.00000 1.14915
						}
					}
				}
			}
		}
	}
	JOINT LowerBack
	{
		OFFSET 0 0 0
		CHANNELS 3 Zrotation Yrotation Xrotation
		JOINT Spine
		{
			OFFSET -0.01567 2.12874 -0.15842
			CHANNELS 3 Zrotation Yrotation Xrotation
			JOINT Spine1
			{
				OFFSET 0.06098 2.13326 -0.01043
				CHANNELS 3 Zrotation Yrotation Xrotation
				JOINT Neck
				{
					OFFSET 0 0 0
					CHANNELS 3 Zrotation Yrotation Xrotation
					JOINT Neck1
					{
						OFFSET -0.05040 1.78432 0.13387
						CHANNELS 3 Zrotation Yrotation Xrotation
						JOINT Head
						{
							OFFSET -0.00180 1.76880 -0.33303
							CHANNELS 3 Zrotation Yrotation Xrotation
							End Site
							{
								OFFSET 0.00734 1.81249 -0.12719
							}
						}
					}
				}
				JOINT LeftShoulder
				{
					OFFSET 0 0 0
					CHANNELS 3 Zrotation Yrotation Xrotation
					JOINT LeftArm
					{
						OFFSET 3.72199 0.94188 -0.54317
						CHANNELS 3 Zrotation Yrotation Xrotation
						JOINT LeftForeArm
						{
							OFFSET 5.14601 -0.00000 0.00000
							CHANNELS 3 Zrotation Yrotation Xrotation
							JOINT LeftHand
							{
								OFFSET 3.64452 -0.00000 -0.00000
								CHANNELS 3 Zrotation Yrotation Xrotation
								JOINT LeftFingerBase
								{
									OFFSET 0 0 0
									CHANNELS 3 Zrotation Yrotation Xrotation
									JOINT LeftHandIndex1
									{
										OFFSET 0.56228 -0.00000 0.00000
										CHANNELS 3 Zrotation Yrotation Xrotation
										End Site
										{
											OFFSET 0.45332 -0.00000 0.00000
										}
									}
								}
								JOINT LThumb
								{
									OFFSET 0 0 0
									CHANNELS 3 Zrotation Yrotation Xrotation
									End Site
									{
										OFFSET 0.46025 -0.00000 0.46025
									}
								}
							}
						}
					}
				}
				JOINT RightShoulder
				{
					OFFSET 0 0 0
					CHANNELS 3 Zrotation Yrotation Xrotation
					JOINT RightArm
					{
						OFFSET -3.30253 1.22679 -0.46941
						CHANNELS 3 Zrotation Yrotation Xrotation
						JOINT RightForeArm
						{
							OFFSET -5.33913 -0.00000 0.00000
							CHANNELS 3 Zrotation Yrotation Xrotation
							JOINT RightHand
							{
								OFFSET -3.56478 -0.00000 -0.00000
								CHANNELS 3 Zrotation Yrotation Xrotation
								JOINT RightFingerBase
								{
									OFFSET 0 0 0
									CHANNELS 3 Zrotation Yrotation Xrotation
									JOINT RightHandIndex1
									{
										OFFSET -0.85747 -0.00000 0.00000
										CHANNELS 3 Zrotation Yrotation Xrotation
										End Site
										{
											OFFSET -0.69132 -0.00000 0.00000
										}
									}
								}
								JOINT RThumb
								{
									OFFSET 0 0 0
									CHANNELS 3 Zrotation Yrotation Xrotation
									End Site
									{
										OFFSET -0.70187 -0.00000 0.70187
									}
								}
							}
						}
					}
				}
			}
		}
	}
}
MOTION
Frames: 15
Frame Time: 0.0227273
0.00 0.00 0.00 -908.5300 -24.1904 916.2330 0.0000 0.0000 0.0000 -23.1215 6.1329 -30.7382 13.9428 19.0966 72.0296 0.3764 -12.7883 -13.2466 3.3076 -11.1771 -32.8795 0.0000 0.0000 0.0000 33.6196 -10.0406 -78.7701 -10.8879 -17.8798 62.4169 0.9224 -23.8921 -27.1666 -3.5625 -11.5543 34.1731 -1.1519 0.8218 26.4065 1.8200 -0.1047 6.0252 2.7723 -0.4464 -7.9384 -1.6618 11.9608 -10.9395 -12.5896 17.7432 8.9867 -2.1294 7.7145 5.5465 -0.0000 -0.0000 0.0000 -68.9731 -12.2653 -7.6330 46.5550 -51.5079 -23.4496 -0.0000 -0.0000 16.2512 28.5718 70.7268 27.2058 -7.1250 0.0000 -0.0000 -132.2013 -73.9214 145.4413 -0.0000 -0.0000 0.0000 70.5879 1.1820 -9.5386 -75.1059 59.1450 -47.1384 0.0000 0.0000 23.5908 -31.2721 -10.3636 6.2352 7.1250 -0.0000 -0.0000 -3.8067 -42.0262 -0.2797
0.00 0.00 0.00 -908.7140 -36.3297 912.4490 0.0000 0.0000 0.0000 -24.6943 -3.0253 -38.9693 16.6375 19.7267 80.1254 2.3354 -11.1886 -27.5159 1.7964 -8.4284 -24.0231 0.0000 0.0000 0.0000 29.4977 -10.7864 -81.3160 -8.0621 -16.1648 52.7862 3.6808 -31.6836 -15.2510 -5.0208 -13.4071 40.9123 -1.5998 2.8605 30.2536 1.3825 2.0658 7.3634 1.8064 0.4822 -8.4264 -4.0229 13.7409 -14.8892 -10.8434 20.5703 8.4378 -0.7981 9.0401 5.7459 -0.0000 -0.0000 0.0000 -72.0399 -9.7744 -10.0281 43.0845 -49.7948 -20.7653 -0.0000 -0.0000 14.9889 29.7500 64.1978 27.2288 -7.1250 0.0000 -0.0000 -121.5858 -78.7438 131.7925 -0.0000 -0.0000 0.0000 73.2506 0.1115 -9.3678 -70.0951 58.4487 -42.8516 0.0000 0.0000 19.7222 -33.7596 -7.3424 4.8826 7.1250 -0.0000 -0.0000 -6.0202 -38.7244 -0.9346
0.00 0.00 0.00 -896.7930 -46.9698 911.1560 0.0000 0.0000 0.0000 -12.0599 -19.9605 -60.5232 11.3810 18.1165 64.0128 0.3669 -6.1392 -10.9611 0.0127 0.7276 1.9994 0.0000 0.0000 0.0000 26.7312 -2.5027 -25.6255 -14.4867 -19.2550 73.6854 -0.2824 12.3194 -12.0468 -0.1904 2.8099 -7.7500 3.8560 5.8615 26.5190 1.6088 7.8001 6.6866 -2.7986 3.3192 -6.8399 -2.9632 16.5512 -11.4363 -16.3489 24.4342 6.8261 -2.3230 10.8613 5.6895 0.0000 0.0000 0.0000 -72.7897 -7.8755 -17.1015 41.3001 -48.8215 -19.4121 -0.0000 -0.0000 12.7215 28.5379 56.7889 24.4648 -7.1250 0.0000 -0.0000 -92.3436 82.2383 -84.5381 0.0000 0.0000 0.0000 68.3791 0.0137 -7.6243 -70.0500 58.4414 -42.8132 0.0000 0.0000 18.8409 -31.0175 -7.2277 4.3261 7.1250 -0.0000 -0.0000 -3.6397 -38.3739 -0.5949
0.00 0.00 0.00 -941.3110 -86.6962 956.2690 0.0000 0.0000 0.0000 -2.7275 -10.1201 -64.0836 5.3560 13.7738 42.3389 -0.0590 5.5107 -5.6738 0.2457 -3.1898 -8.8076 0.0000 0.0000 0.0000 31.8312 -7.7437 -50.6572 -11.7526 -18.2841 65.2025 -1.7906 -17.9234 -36.9559 -0.1484 -2.4823 6.8407 0.9795 3.8480 31.3632 0.4498 4.5931 6.5889 -1.7649 1.8427 -9.6452 -3.0367 10.1325 -17.1710 -14.0238 15.1644 2.2743 -2.4721 6.5895 4.3603 0.0000 -0.0000 0.0000 -71.2599 -11.0012 -11.3040 39.7758 -47.9365 -18.2726 -0.0000 -0.0000 14.4239 31.8313 51.8290 26.0143 -7.1250 0.0000 -0.0000 -54.7119 83.6953 -49.3842 0.0000 -0.0000 0.0000 69.7239 1.4140 -1.8251 -72.5631 58.8194 -44.9590 0.0000 0.0000 20.9905 -31.1520 -8.2861 4.9788 7.1250 -0.0000 -0.0000 -3.7456 -39.6111 -0.4983
0.00 0.00 0.00 -1108.4800 -77.7644 1127.0000 0.0000 0.0000 0.0000 -14.1949 1.5392 -81.5771 9.2969 16.9950 57.1113 -0.2038 8.0413 -4.0466 0.3332 -3.7100 -10.2621 0.0000 0.0000 0.0000 32.7607 -15.8319 -53.6124 -14.6495 -19.2993 74.1787 -2.0625 -20.6618 -40.7432 -0.1113 -2.1514 5.9242 2.0497 3.4827 28.8704 2.9674 5.0225 4.7586 0.3576 2.1196 -10.6742 -4.6244 3.1312 -21.4097 -5.0128 5.7448 3.8989 -0.2977 2.3203 4.5820 0.0000 -0.0000 0.0000 -76.0774 -8.9395 -14.7796 42.0739 -49.2517 -19.9965 -0.0000 -0.0000 13.4466 34.0854 48.5629 26.8985 -7.1250 0.0000 -0.0000 -28.0992 83.0389 -24.6457 0.0000 -0.0000 0.0000 67.1507 10.6968 -5.7444 -56.0187 55.1522 -31.0503 0.0000 0.0000 17.1200 -32.2083 -9.3837 5.8642 7.1250 -0.0000 -0.0000 -4.6687 -40.9871 -0.4632
0.00 0.00 0.00 -1104.5200 -67.7962 1123.3100 0.0000 0.0000 0.0000 -16.8110 0.7871 -68.8182 8.9571 16.7800 55.9415 0.5736 -2.8326 -13.6192 0.0474 -1.4058 -3.8660 0.0000 0.0000 0.0000 30.1138 -12.0872 -37.4354 -10.9488 -17.9099 62.6151 3.2905 -32.2744 -25.8946 -2.8142 -10.3879 30.2424 1.7711 3.5584 24.2442 2.5827 5.1025 3.5344 0.2411 2.2738 -9.6635 -4.6487 -0.4352 -22.3903 0.1437 0.6538 6.5190 0.8505 0.1693 5.5085 -0.0000 0.0000 0.0000 -75.1953 -7.2915 -15.5179 43.6709 -50.1005 -21.2141 -0.0000 -0.0000 14.2096 34.8599 46.5567 26.8279 -7.1250 0.0000 -0.0000 -16.6295 81.8116 -14.1312 -0.0000 0.0000 0.0000 70.9874 7.0196 -7.6147 -53.3165 54.2486 -28.8447 0.0000 0.0000 18.4900 -29.4019 -7.3419 4.1188 7.1250 -0.0000 -0.0000 -2.2411 -38.3837 -0.3654
0.00 0.00 0.00 -1084.7200 -41.6886 1097.9600 0.0000 0.0000 0.0000 -22.5799 -1.7390 -39.1637 5.3563 13.7741 42.3400 0.2438 -19.7267 -15.8499 0.4333 -4.2240 -11.7076 0.0000 0.0000 0.0000 14.8823 7.3692 -55.6548 -7.7799 -15.9549 51.7659 0.1177 -8.6162 -9.6546 -0.0019 -0.2844 0.7814 -1.1848 1.4838 24.0617 3.4066 1.8655 3.3281 3.8866 0.9357 -9.9036 -7.6864 -5.9603 -15.4661 5.3191 -7.0710 8.8506 2.2371 -3.3356 5.6479 -0.0000 -0.0000 0.0000 -77.4626 -3.7506 -12.9789 44.0755 -50.3074 -21.5250 -0.0000 -0.0000 17.2127 33.7010 41.0194 23.6401 -7.1250 0.0000 -0.0000 -5.2107 76.2086 -3.8204 -0.0000 -0.0000 0.0000 72.2599 1.1571 -11.6563 -52.8659 54.0880 -28.4795 0.0000 0.0000 18.7636 -30.5387 -8.2476 4.8374 7.1250 -0.0000 -0.0000 -3.2083 -39.5135 -0.4343
0.00 0.00 0.00 -1083.6800 -32.5027 1094.6200 0.0000 0.0000 0.0000 -20.9533 -2.3430 -33.8231 5.8127 14.2443 44.2251 -0.4462 -25.2697 -14.7839 0.2762 -3.3806 -9.3403 0.0000 0.0000 0.0000 13.3320 7.2081 -57.8489 -4.3497 -12.6118 37.9322 0.0104 -7.7569 5.2089 -0.0870 1.9026 -5.2366 -2.4198 0.9547 24.5660 3.4305 0.8375 4.5101 4.9480 0.4537 -8.7741 -6.3795 -7.8286 -15.8602 6.8737 -10.0176 8.1711 2.1976 -4.6127 5.7089 0.0000 -0.0000 0.0000 -75.8684 -3.3947 -15.7042 43.2290 -49.8708 -20.8757 -0.0000 -0.0000 12.1709 34.0748 39.7443 23.3870 -7.1250 0.0000 -0.0000 -2.7770 75.0767 -1.9685 0.0000 -0.0000 0.0000 72.0891 2.0390 -12.5911 -51.9303 53.7449 -27.7233 0.0000 0.0000 18.1276 -30.3334 -10.5296 6.1034 7.1250 -0.0000 -0.0000 -2.9509 -42.1146 -0.2103
0.00 0.00 0.00 -1081.0300 -12.1331 1090.5900 0.0000 0.0000 0.0000 -14.9893 -6.3238 -31.9205 10.4296 17.6444 60.9146 -3.2051 -36.1626 -8.5981 0.0057 -0.4870 -1.3382 0.0000 0.0000 0.0000 6.2831 4.5206 -56.9675 -2.1676 -9.2069 26.4445 -1.2538 -7.1858 20.0085 -0.0686 1.6895 -4.6482 -3.9590 0.2676 25.7895 3.8690 -0.3631 5.1408 6.7422 -0.0608 -8.5453 -5.6164 -11.6981 -11.6302 9.2619 -15.5812 4.2637 2.4762 -7.3766 4.3155 0.0000 0.0000 0.0000 -75.8137 -1.1595 -16.8816 40.7980 -48.5356 -19.0351 -0.0000 -0.0000 7.5951 40.1145 46.1743 31.2924 -7.1250 0.0000 -0.0000 -0.4167 83.6999 -0.3685 0.0000 0.0000 0.0000 70.8191 -0.0814 -15.4819 -54.6941 54.7218 -29.9661 0.0000 0.0000 18.3708 -32.2330 -11.2873 7.0356 7.1250 -0.0000 -0.0000 -4.6579 -43.2080 -0.2065
0.00 0.00 0.00 -1080.1100 -5.2970 1089.9200 0.0000 0.0000 0.0000 -12.0134 -8.7740 -30.4196 11.7630 18.2886 65.2355 -4.2813 -38.1099 -4.4737 0.0490 1.4288 3.9296 0.0000 0.0000 0.0000 6.0101 1.9346 -61.2736 -5.1209 -13.5187 41.3425 -0.7988 1.8947 17.6701 -0.1746 -2.6913 7.4205 -3.5153 -0.2556 27.4610 4.0314 -0.8938 4.7345 6.9272 -0.2505 -9.7857 -5.8727 -12.8399 -9.9016 10.0173 -17.1146 2.9807 2.7152 -8.1935 3.8478 -0.0000 -0.0000 0.0000 -76.1976 -0.1644 -17.7446 39.4948 -47.7677 -18.0643 -0.0000 -0.0000 6.7637 37.7773 40.1145 26.5365 -7.1250 0.0000 -0.0000 4.0969 76.7780 3.0522 -0.0000 -0.0000 0.0000 70.1145 -0.3886 -16.2708 -53.8470 54.4340 -29.2758 0.0000 0.0000 18.4521 -32.1060 -10.9963 6.8248 7.1250 -0.0000 -0.0000 -4.5486 -42.8544 -0.2414
0.00 0.00 0.00 -1079.6200 -0.2120 1090.4100 0.0000 0.0000 0.0000 -7.3025 -12.5608 -30.9364 13.5508 18.9721 70.8278 -5.9629 -40.3087 4.1543 0.2875 3.4483 9.5295 0.0000 0.0000 0.0000 5.2370 1.8012 -68.0088 -9.6296 -17.1962 58.2431 -0.1576 0.7702 7.8204 -0.1752 -2.6965 7.4349 -2.6019 -0.5549 27.4383 4.1123 -0.9857 4.8547 6.5056 -0.3189 -9.6418 -6.1024 -14.0897 -9.6078 11.1762 -18.8038 2.1366 2.9463 -9.0234 3.8113 -0.0000 -0.0000 0.0000 -76.3935 0.3628 -18.4875 40.6526 -48.4518 -18.9262 -0.0000 -0.0000 6.1943 36.2991 37.5714 24.1272 -7.1250 0.0000 -0.0000 3.4372 73.6233 2.3293 -0.0000 -0.0000 0.0000 68.9269 0.6327 -17.2778 -53.4404 54.2922 -28.9453 0.0000 0.0000 17.7234 -31.6867 -11.2028 6.8388 7.1250 -0.0000 -0.0000 -4.1581 -43.0441 -0.2011
0.00 0.00 0.00 -1078.8100 3.3992 1090.0900 0.0000 0.0000 0.0000 -2.2623 -16.7949 -28.8178 15.1425 19.4246 75.6656 -7.0058 -41.2452 14.9645 0.5695 4.8329 13.4326 0.0000 0.0000 0.0000 6.4769 1.4960 -71.8129 -14.7814 -19.3341 74.5775 -0.1134 -0.1382 -6.4121 -0.1243 -2.2730 6.2606 -2.7889 -0.1857 28.6384 4.0147 -0.5648 4.7627 6.4097 -0.0813 -10.4084 -5.9537 -15.3786 -8.4671 12.3762 -20.6382 1.6098 3.1633 -9.9452 3.7416 -0.0000 0.0000 0.0000 -76.0261 1.6904 -19.7004 41.2116 -48.7715 -19.3456 -0.0000 -0.0000 5.7053 37.0342 35.6446 23.7343 -7.1250 0.0000 -0.0000 6.0098 71.8342 3.8407 -0.0000 0.0000 0.0000 66.7792 1.9818 -18.4331 -52.4917 53.9523 -28.1767 0.0000 0.0000 17.2382 -32.1445 -10.5435 6.5592 7.1250 -0.0000 -0.0000 -4.5939 -42.3321 -0.3031
0.00 0.00 0.00 -1077.7600 4.9291 1092.8200 0.0000 0.0000 0.0000 2.8722 -20.3649 -27.5085 15.3189 19.4663 76.1954 -5.3882 -38.3879 27.7988 1.0047 6.3781 17.8856 0.0000 0.0000 0.0000 9.5761 0.8582 -78.5854 -19.7277 -19.9982 89.2038 -0.6154 -0.1062 -14.8634 -0.0421 -1.3247 3.6426 -1.4541 -0.4474 29.3185 3.8531 -0.4998 4.4942 5.4493 -0.0742 -11.0901 -5.6017 -16.0232 -9.0338 12.8017 -21.4610 0.6401 3.1423 -10.3616 3.6191 0.0000 -0.0000 0.0000 -77.1750 1.1214 -20.1163 39.4592 -47.7462 -18.0379 -0.0000 -0.0000 7.5386 33.7334 31.8107 19.3913 -7.1250 0.0000 -0.0000 2.7499 66.6783 1.4370 0.0000 -0.0000 0.0000 63.5938 6.4181 -18.1853 -51.9925 53.7682 -27.7735 0.0000 0.0000 18.3007 -32.7032 -9.2530 5.8944 7.1250 -0.0000 -0.0000 -5.1120 -40.8843 -0.5204
0.00 0.00 0.00 -1072.6300 4.0850 1097.0800 0.0000 0.0000 0.0000 -1.9810 -22.9174 -15.7579 9.9928 17.4058 59.4641 -3.8813 -33.0447 21.1806 0.3026 3.5369 9.7772 0.0000 0.0000 0.0000 9.8423 2.5245 -78.2525 -21.4861 -19.9470 94.3489 -1.0082 0.2956 -18.8881 -0.1079 -2.1182 5.8323 -3.6411 -1.4358 28.8274 2.8916 -2.5384 4.4094 6.3479 -0.9583 -10.6617 -5.9987 -15.5769 -11.2227 14.3635 -20.5540 -2.4280 3.6800 -9.9341 3.1773 -0.0000 -0.0000 0.0000 -73.9456 -1.7315 -18.3521 38.6578 -47.2543 -17.4471 -0.0000 -0.0000 7.4278 35.1258 32.7098 20.8144 -7.1250 0.0000 -0.0000 4.3747 68.0724 2.4264 -0.0000 -0.0000 0.0000 64.3138 4.4611 -18.4216 -55.8408 55.0957 -30.9044 0.0000 0.0000 17.5749 -30.5588 -12.0056 7.0016 7.1250 -0.0000 -0.0000 -3.0828 -43.8305 -0.0891
0.00 0.00 0.00 -1071.6200 -0.7493 1098.8200 0.0000 0.0000 0.0000 -4.7165 -21.0040 -14.9465 8.0805 16.1782 52.8522 1.3886 -19.2747 36.1130 0.0086 -0.5986 -1.6450 0.0000 0.0000 0.0000 9.7583 6.6042 -73.4338 -19.5748 -19.9957 88.7569 -1.1147 0.9140 -19.6774 -0.0628 -1.6176 4.4499 -3.3573 -1.5817 27.4238 2.7726 -2.6484 4.0612 6.0172 -1.0384 -10.3524 -7.0448 -14.7895 -12.1426 14.4157 -19.1990 -3.7892 3.9783 -9.2801 2.8855 -0.0000 -0.0000 0.0000 -74.3788 -1.5049 -18.5908 38.8660 -47.3835 -17.6001 -0.0000 -0.0000 7.3520 35.7323 33.3385 21.5731 -7.1250 0.0000 -0.0000 5.0170 68.9407 2.8818 -0.0000 -0.0000 0.0000 64.7473 3.9332 -18.7041 -57.0602 55.4743 -31.9068 0.0000 0.0000 18.1768 -31.7057 -10.7641 6.5814 7.1250 -0.0000 -0.0000 -4.1889 -42.5383 -0.2549
